<svg xmlns="http://www.w3.org/2000/svg" viewBox="0 0 1600 900" preserveAspectRatio="xMidYMid slice">
  <g fill="none" stroke="#9CA3AF" stroke-opacity="0.35" stroke-width="1.2">
    <path d="M-120 470 C120 380 380 600 660 520 C920 450 1160 600 1440 520 C1680 460 1840 520 1880 540"/>
    <path d="M-120 500 C120 410 380 630 660 550 C920 480 1160 630 1440 550 C1680 490 1840 550 1880 570"/>
    <path d="M-120 530 C120 440 380 660 660 580 C920 510 1160 660 1440 580 C1680 520 1840 580 1880 600"/>
    <path d="M-120 560 C120 470 380 690 660 610 C920 540 1160 690 1440 610 C1680 550 1840 610 1880 630"/>
    <path d="M-120 590 C120 500 380 720 660 640 C920 570 1160 720 1440 640 C1680 580 1840 640 1880 660"/>
    <path d="M-120 620 C120 530 380 750 660 670 C920 600 1160 750 1440 670 C1680 610 1840 670 1880 690"/>
  </g>
</svg>
