<svg xmlns="http://www.w3.org/2000/svg" viewBox="0 0 1600 900" preserveAspectRatio="xMidYMid slice">
  <defs>
    <linearGradient id="bg" x1="0" x2="1" y1="0" y2="1">
      <stop offset="0" stop-color="#0B1220"/>
      <stop offset="1" stop-color="#0F1A2E"/>
    </linearGradient>
    <linearGradient id="wave" x1="0" x2="1" y1="0" y2="0">
      <stop offset="0" stop-color="#94A3B8" stop-opacity="0.22"/>
      <stop offset="1" stop-color="#64748B" stop-opacity="0.18"/>
    </linearGradient>
  </defs>
  <rect width="1600" height="900" fill="url(#bg)"/>
  <g fill="none" stroke="url(#wave)" stroke-width="2">
    <path d="M-100,520 C200,420 480,620 760,520 C1040,420 1320,620 1700,520"/>
    <path d="M-100,560 C200,460 480,660 760,560 C1040,460 1320,660 1700,560"/>
    <path d="M-100,600 C200,500 480,700 760,600 C1040,500 1320,700 1700,600"/>
    <path d="M-100,640 C200,540 480,740 760,640 C1040,540 1320,740 1700,640"/>
  </g>
</svg>
